<svg width="285" height="255" viewBox="0 0 285 255" fill="none" xmlns="http://www.w3.org/2000/svg">
<g clip-path="url(#clip0)" filter="url(#filter0_d)">
<path d="M132.798 148.404C172.897 148.404 205.404 115.897 205.404 75.7979C205.404 35.6985 172.897 3.19149 132.798 3.19149C92.6985 3.19149 60.1915 35.6985 60.1915 75.7979C60.1915 115.897 92.6985 148.404 132.798 148.404Z" fill="#FFC742"/>
<path opacity="0.4" d="M203.808 75C203.799 85.3296 201.585 95.5382 197.315 104.944C193.046 114.35 186.818 122.736 179.049 129.543C171.279 136.35 162.147 141.421 152.261 144.417C142.375 147.413 131.964 148.266 121.723 146.917C111.482 145.568 101.646 142.05 92.8735 136.597C84.1005 131.144 76.592 123.882 70.8495 115.296C65.107 106.71 61.2627 96.9968 59.5733 86.8063C57.884 76.6158 58.3885 66.1821 61.0532 56.2021C75.0277 69.6694 93.6748 77.2015 113.082 77.2181C118.317 77.296 123.525 76.4618 128.473 74.7527C140.019 70.4761 148.197 60 153.662 48.9734C156.854 42.4628 159.439 35.5532 163.715 29.6729C167.146 25.0045 171.575 21.161 176.681 18.4229C185.154 25.2172 191.991 33.8295 196.687 43.6227C201.382 53.4158 203.816 64.1393 203.808 75V75Z" fill="#B27702"/>
<path opacity="0.5" d="M68.1702 76.5957C68.1707 58.0303 75.283 40.1703 88.0452 26.6869C100.807 13.2035 118.25 5.12115 136.787 4.10107C135.468 4.0266 134.138 3.98936 132.798 3.98936C113.541 3.98936 95.0738 11.6389 81.4574 25.2553C67.8411 38.8716 60.1915 57.3393 60.1915 76.5957C60.1915 95.8521 67.8411 114.32 81.4574 127.936C95.0738 141.553 113.541 149.202 132.798 149.202C134.138 149.202 135.468 149.165 136.787 149.09C118.25 148.07 100.807 139.988 88.0452 126.505C75.283 113.021 68.1707 95.1612 68.1702 76.5957V76.5957Z" fill="#8A7683"/>
<path opacity="0.5" d="M195.83 75C195.829 93.5654 188.717 111.425 175.955 124.909C163.193 138.392 145.75 146.475 127.213 147.495C128.532 147.564 129.862 147.601 131.202 147.606C150.459 147.606 168.926 139.957 182.543 126.34C196.159 112.724 203.809 94.2564 203.809 75C203.809 55.7436 196.159 37.2759 182.543 23.6595C168.926 10.0432 150.459 2.39362 131.202 2.39362C129.862 2.39362 128.532 2.43085 127.213 2.50532C145.75 3.5254 163.193 11.6078 175.955 25.0912C188.717 38.5746 195.829 56.4346 195.83 75Z" fill="#3F5A7C"/>
<path d="M132 150C117.166 150 102.666 145.601 90.3322 137.36C77.9985 129.119 68.3856 117.406 62.709 103.701C57.0325 89.9968 55.5472 74.9168 58.4411 60.3682C61.335 45.8196 68.4781 32.4559 78.967 21.967C89.4559 11.478 102.82 4.33498 117.368 1.44109C131.917 -1.4528 146.997 0.0324508 160.701 5.70902C174.406 11.3856 186.119 20.9985 194.36 33.3322C202.601 45.6659 207 60.1664 207 75C206.977 94.8841 199.068 113.947 185.007 128.007C170.947 142.068 151.884 149.977 132 150V150ZM132 4.78722C118.113 4.78722 104.538 8.90513 92.9919 16.6202C81.4455 24.3353 72.4461 35.301 67.1319 48.1307C61.8176 60.9604 60.4272 75.0779 63.1364 88.6978C65.8455 102.318 72.5326 114.828 82.3521 124.648C92.1715 134.467 104.682 141.154 118.302 143.864C131.922 146.573 146.04 145.182 158.869 139.868C171.699 134.554 182.665 125.555 190.38 114.008C198.095 102.462 202.213 88.8868 202.213 75C202.192 56.3849 194.787 38.5383 181.625 25.3754C168.462 12.2125 150.615 4.80834 132 4.78722V4.78722Z" fill="#2E576D"/>
<path d="M131.553 136.029C119.323 136.029 107.368 132.402 97.1986 125.608C87.0297 118.813 79.1041 109.155 74.4242 97.8556C69.7443 86.5562 68.5202 74.1228 70.9068 62.1278C73.2934 50.1327 79.1834 39.1148 87.832 30.4673C96.4806 21.8198 107.499 15.9312 119.495 13.5462C131.49 11.1612 143.923 12.3869 155.222 17.0682C166.521 21.7496 176.178 29.6764 182.971 39.8462C189.765 50.016 193.39 61.9719 193.388 74.2021C193.367 90.5946 186.845 106.31 175.253 117.9C163.661 129.49 147.946 136.01 131.553 136.029V136.029ZM131.553 13.9548C119.639 13.9548 107.993 17.4876 98.0868 24.1064C88.1807 30.7252 80.4596 40.1329 75.9 51.1397C71.3404 62.1465 70.147 74.2582 72.4707 85.9433C74.7944 97.6284 80.5309 108.362 88.9547 116.787C97.3785 125.212 108.111 130.95 119.796 133.275C131.481 135.6 143.593 134.408 154.6 129.85C165.608 125.292 175.016 117.572 181.637 107.667C188.257 97.7619 191.791 86.116 191.793 74.2021C191.776 58.2301 185.424 42.917 174.131 31.6223C162.837 20.3276 147.525 13.9738 131.553 13.9548V13.9548Z" fill="#2E576D"/>
<path d="M89.2777 102.779C89.9034 102.773 90.4058 102.261 90.3997 101.635C90.3937 101.009 89.8816 100.507 89.2559 100.513C88.6302 100.519 88.1279 101.031 88.1339 101.657C88.1399 102.282 88.652 102.785 89.2777 102.779Z" fill="white"/>
<path d="M89.3105 106.193C89.9362 106.187 90.4385 105.675 90.4325 105.049C90.4265 104.424 89.9144 103.921 89.2887 103.927C88.663 103.933 88.1607 104.445 88.1667 105.071C88.1727 105.697 88.6848 106.199 89.3105 106.193Z" fill="white"/>
<path d="M89.3432 109.6C89.9689 109.593 90.4712 109.081 90.4652 108.456C90.4592 107.83 89.9471 107.328 89.3214 107.334C88.6957 107.34 88.1933 107.852 88.1994 108.477C88.2054 109.103 88.7175 109.606 89.3432 109.6Z" fill="white"/>
<path d="M86.0879 98.7882C86.7136 98.7822 87.216 98.2701 87.21 97.6444C87.204 97.0187 86.6919 96.5163 86.0662 96.5223C85.4405 96.5283 84.9381 97.0404 84.9441 97.6661C84.9501 98.2918 85.4622 98.7942 86.0879 98.7882Z" fill="white"/>
<path d="M86.1207 102.203C86.7464 102.197 87.2488 101.684 87.2428 101.059C87.2368 100.433 86.7247 99.9307 86.099 99.9368C85.4733 99.9428 84.9709 100.455 84.9769 101.081C84.9829 101.706 85.495 102.209 86.1207 102.203Z" fill="white"/>
<path d="M86.1534 105.617C86.7791 105.611 87.2815 105.099 87.2755 104.473C87.2695 103.848 86.7574 103.345 86.1317 103.351C85.506 103.357 85.0036 103.869 85.0096 104.495C85.0156 105.121 85.5277 105.623 86.1534 105.617Z" fill="white"/>
<g opacity="0.5">
<path opacity="0.5" d="M181.831 50.9165C182.457 50.9105 182.959 50.3984 182.953 49.7727C182.947 49.147 182.435 48.6446 181.81 48.6507C181.184 48.6567 180.682 49.1688 180.688 49.7945C180.694 50.4202 181.206 50.9225 181.831 50.9165Z" fill="#3F5A7C"/>
<path opacity="0.5" d="M181.864 54.3309C182.49 54.3249 182.992 53.8128 182.986 53.1871C182.98 52.5614 182.468 52.0591 181.842 52.0651C181.217 52.0711 180.714 52.5832 180.72 53.2089C180.726 53.8346 181.239 54.337 181.864 54.3309Z" fill="#3F5A7C"/>
<path opacity="0.5" d="M181.897 57.7374C182.523 57.7314 183.025 57.2193 183.019 56.5936C183.013 55.9679 182.501 55.4655 181.875 55.4715C181.249 55.4776 180.747 55.9896 180.753 56.6153C180.759 57.241 181.271 57.7434 181.897 57.7374Z" fill="#3F5A7C"/>
<path opacity="0.5" d="M178.642 46.9262C179.267 46.9202 179.77 46.4081 179.764 45.7824C179.758 45.1567 179.246 44.6543 178.62 44.6603C177.994 44.6663 177.492 45.1784 177.498 45.8041C177.504 46.4298 178.016 46.9322 178.642 46.9262Z" fill="#3F5A7C"/>
<path opacity="0.5" d="M178.674 50.3405C179.3 50.3345 179.803 49.8224 179.797 49.1967C179.791 48.571 179.278 48.0686 178.653 48.0746C178.027 48.0806 177.525 48.5927 177.531 49.2184C177.537 49.8441 178.049 50.3465 178.674 50.3405Z" fill="#3F5A7C"/>
<path opacity="0.5" d="M178.707 53.7469C179.333 53.7409 179.835 53.2288 179.829 52.6031C179.823 51.9774 179.311 51.4751 178.685 51.4811C178.06 51.4871 177.557 51.9992 177.563 52.6249C177.569 53.2506 178.081 53.7529 178.707 53.7469Z" fill="#3F5A7C"/>
</g>
<g opacity="0.5">
<path opacity="0.5" d="M177.047 103.58C177.673 103.574 178.175 103.062 178.169 102.436C178.163 101.81 177.651 101.308 177.026 101.314C176.4 101.32 175.897 101.832 175.903 102.458C175.909 103.083 176.422 103.586 177.047 103.58Z" fill="#3F5A7C"/>
<path opacity="0.5" d="M177.08 106.994C177.706 106.988 178.208 106.476 178.202 105.85C178.196 105.225 177.684 104.722 177.058 104.728C176.433 104.734 175.93 105.246 175.936 105.872C175.942 106.498 176.454 107 177.08 106.994Z" fill="#3F5A7C"/>
<path opacity="0.5" d="M177.113 110.401C177.738 110.395 178.241 109.883 178.235 109.257C178.229 108.631 177.717 108.129 177.091 108.135C176.465 108.141 175.963 108.653 175.969 109.279C175.975 109.904 176.487 110.407 177.113 110.401Z" fill="#3F5A7C"/>
<path opacity="0.5" d="M173.857 99.5894C174.483 99.5834 174.986 99.0713 174.98 98.4456C174.974 97.8199 174.461 97.3175 173.836 97.3236C173.21 97.3296 172.708 97.8417 172.714 98.4674C172.72 99.093 173.232 99.5954 173.857 99.5894Z" fill="#3F5A7C"/>
<path opacity="0.5" d="M173.882 103.004C174.508 102.998 175.01 102.486 175.004 101.86C174.998 101.234 174.486 100.732 173.861 100.738C173.235 100.744 172.732 101.256 172.739 101.882C172.745 102.507 173.257 103.01 173.882 103.004Z" fill="#3F5A7C"/>
<path opacity="0.5" d="M173.915 106.41C174.541 106.404 175.043 105.892 175.037 105.266C175.031 104.641 174.519 104.138 173.893 104.144C173.268 104.15 172.765 104.662 172.771 105.288C172.777 105.914 173.289 106.416 173.915 106.41Z" fill="#3F5A7C"/>
</g>
<path d="M88.3402 44.372C88.6886 43.8523 88.5498 43.1485 88.0301 42.8001C87.5103 42.4516 86.8065 42.5905 86.4581 43.1102C86.1096 43.6299 86.2485 44.3337 86.7682 44.6822C87.2879 45.0306 87.9917 44.8918 88.3402 44.372Z" fill="white"/>
<path d="M86.4438 47.1995C86.7923 46.6798 86.6534 45.976 86.1337 45.6275C85.614 45.2791 84.9102 45.4179 84.5617 45.9376C84.2133 46.4574 84.3521 47.1612 84.8718 47.5096C85.3916 47.8581 86.0954 47.7192 86.4438 47.1995Z" fill="white"/>
<path d="M84.5475 50.0349C84.8959 49.5152 84.7571 48.8114 84.2374 48.4629C83.7176 48.1145 83.0138 48.2533 82.6654 48.7731C82.3169 49.2928 82.4558 49.9966 82.9755 50.345C83.4952 50.6935 84.199 50.5546 84.5475 50.0349Z" fill="white"/>
<path d="M87.96 39.2783C88.3084 38.7586 88.1696 38.0548 87.6499 37.7063C87.1301 37.3579 86.4263 37.4967 86.0779 38.0164C85.7294 38.5362 85.8683 39.24 86.388 39.5884C86.9077 39.9369 87.6115 39.798 87.96 39.2783Z" fill="white"/>
<path d="M86.0615 42.1026C86.4099 41.5829 86.2711 40.8791 85.7513 40.5307C85.2316 40.1822 84.5278 40.3211 84.1794 40.8408C83.8309 41.3605 83.9698 42.0643 84.4895 42.4128C85.0092 42.7612 85.713 42.6224 86.0615 42.1026Z" fill="white"/>
<path d="M84.1651 44.9301C84.5136 44.4104 84.3747 43.7066 83.855 43.3581C83.3353 43.0097 82.6315 43.1485 82.283 43.6682C81.9346 44.188 82.0734 44.8918 82.5931 45.2402C83.1129 45.5887 83.8167 45.4498 84.1651 44.9301Z" fill="white"/>
<g opacity="0.5">
<path opacity="0.5" d="M150.505 140.331C151.1 140.139 151.428 139.501 151.236 138.905C151.044 138.31 150.405 137.983 149.81 138.174C149.214 138.366 148.887 139.005 149.079 139.6C149.271 140.196 149.909 140.523 150.505 140.331Z" fill="#3F5A7C"/>
<path opacity="0.5" d="M147.561 140.819C148.155 140.625 148.48 139.986 148.286 139.392C148.092 138.797 147.453 138.473 146.858 138.667C146.264 138.861 145.939 139.5 146.133 140.094C146.327 140.689 146.966 141.013 147.561 140.819Z" fill="#3F5A7C"/>
<path opacity="0.5" d="M144.014 142.419C144.61 142.228 144.937 141.589 144.745 140.994C144.553 140.398 143.915 140.071 143.319 140.263C142.724 140.455 142.397 141.093 142.588 141.689C142.78 142.284 143.419 142.611 144.014 142.419Z" fill="#3F5A7C"/>
<path opacity="0.5" d="M153.36 136.093C153.956 135.901 154.283 135.263 154.091 134.667C153.899 134.071 153.261 133.744 152.665 133.936C152.07 134.128 151.742 134.766 151.934 135.362C152.126 135.958 152.765 136.285 153.36 136.093Z" fill="#3F5A7C"/>
<path opacity="0.5" d="M150.119 137.14C150.714 136.948 151.042 136.309 150.85 135.714C150.658 135.118 150.019 134.791 149.424 134.983C148.828 135.175 148.501 135.813 148.693 136.409C148.885 137.004 149.523 137.332 150.119 137.14Z" fill="#3F5A7C"/>
<path opacity="0.5" d="M146.87 138.181C147.465 137.989 147.793 137.351 147.601 136.755C147.409 136.16 146.77 135.832 146.175 136.024C145.579 136.216 145.252 136.855 145.444 137.45C145.636 138.046 146.274 138.373 146.87 138.181Z" fill="#3F5A7C"/>
</g>
<path d="M81.6555 90.0147C82.2812 90.0087 82.7836 89.4966 82.7776 88.8709C82.7715 88.2452 82.2594 87.7428 81.6338 87.7488C81.0081 87.7548 80.5057 88.2669 80.5117 88.8926C80.5177 89.5183 81.0298 90.0207 81.6555 90.0147Z" fill="white"/>
<path d="M81.6803 93.4291C82.306 93.4231 82.8083 92.911 82.8023 92.2853C82.7963 91.6596 82.2842 91.1572 81.6585 91.1632C81.0328 91.1692 80.5305 91.6813 80.5365 92.307C80.5425 92.9327 81.0546 93.4351 81.6803 93.4291Z" fill="white"/>
<path d="M81.713 96.8355C82.3387 96.8295 82.8411 96.3174 82.835 95.6917C82.829 95.066 82.3169 94.5637 81.6912 94.5697C81.0655 94.5757 80.5632 95.0878 80.5692 95.7135C80.5752 96.3392 81.0873 96.8415 81.713 96.8355Z" fill="white"/>
<path d="M71.3617 82.4122H86.8564" stroke="#2E576D" stroke-miterlimit="10"/>
<path d="M88.109 83.5771C88.7524 83.5771 89.2739 83.0556 89.2739 82.4122C89.2739 81.7689 88.7524 81.2473 88.109 81.2473C87.4657 81.2473 86.9442 81.7689 86.9442 82.4122C86.9442 83.0556 87.4657 83.5771 88.109 83.5771Z" stroke="#2E576D" stroke-miterlimit="10"/>
<path d="M70.5319 79.2048H83.3936" stroke="#2E576D" stroke-miterlimit="10"/>
<path d="M84.6463 80.3697C85.2896 80.3697 85.8112 79.8481 85.8112 79.2048C85.8112 78.5614 85.2896 78.0399 84.6463 78.0399C84.0029 78.0399 83.4814 78.5614 83.4814 79.2048C83.4814 79.8481 84.0029 80.3697 84.6463 80.3697Z" stroke="#2E576D" stroke-miterlimit="10"/>
<path d="M70.5319 72.7899H78.1356" stroke="#2E576D" stroke-miterlimit="10"/>
<path d="M79.3883 73.9548C80.0316 73.9548 80.5532 73.4332 80.5532 72.7899C80.5532 72.1465 80.0316 71.625 79.3883 71.625C78.7449 71.625 78.2234 72.1465 78.2234 72.7899C78.2234 73.4332 78.7449 73.9548 79.3883 73.9548Z" stroke="#2E576D" stroke-miterlimit="10"/>
<path d="M70.9468 75.9973H86.4973" stroke="#2E576D" stroke-miterlimit="10"/>
<path d="M87.75 77.1622C88.3934 77.1622 88.9149 76.6407 88.9149 75.9974C88.9149 75.354 88.3934 74.8325 87.75 74.8325C87.1067 74.8325 86.5851 75.354 86.5851 75.9974C86.5851 76.6407 87.1067 77.1622 87.75 77.1622Z" stroke="#2E576D" stroke-miterlimit="10"/>
<path d="M191.362 82.4122H175.867" stroke="#2E576D" stroke-miterlimit="10"/>
<path d="M174.614 83.5771C175.258 83.5771 175.779 83.0556 175.779 82.4122C175.779 81.7689 175.258 81.2473 174.614 81.2473C173.971 81.2473 173.449 81.7689 173.449 82.4122C173.449 83.0556 173.971 83.5771 174.614 83.5771Z" stroke="#2E576D" stroke-miterlimit="10"/>
<path d="M192.191 79.2048H179.33" stroke="#2E576D" stroke-miterlimit="10"/>
<path d="M178.077 80.3697C178.72 80.3697 179.242 79.8481 179.242 79.2048C179.242 78.5614 178.72 78.0399 178.077 78.0399C177.434 78.0399 176.912 78.5614 176.912 79.2048C176.912 79.8481 177.434 80.3697 178.077 80.3697Z" stroke="#2E576D" stroke-miterlimit="10"/>
<path d="M192.191 72.7899H184.588" stroke="#2E576D" stroke-miterlimit="10"/>
<path d="M183.343 73.9548C183.986 73.9548 184.508 73.4332 184.508 72.7899C184.508 72.1465 183.986 71.625 183.343 71.625C182.7 71.625 182.178 72.1465 182.178 72.7899C182.178 73.4332 182.7 73.9548 183.343 73.9548Z" stroke="#2E576D" stroke-miterlimit="10"/>
<path d="M191.777 75.9973H176.226" stroke="#2E576D" stroke-miterlimit="10"/>
<path d="M174.973 77.1622C175.617 77.1622 176.138 76.6407 176.138 75.9974C176.138 75.354 175.617 74.8325 174.973 74.8325C174.33 74.8325 173.809 75.354 173.809 75.9974C173.809 76.6407 174.33 77.1622 174.973 77.1622Z" stroke="#2E576D" stroke-miterlimit="10"/>
<path d="M155.362 74.7606C153.557 73.534 151.538 72.6571 149.41 72.1755C149.41 72.1755 152.37 70.4601 153.574 68.7447C154.656 67.0044 155.312 65.0335 155.489 62.992C155.593 61.6117 155.824 55.8112 151.316 52.5C147.83 49.9229 143.84 48.9016 138.479 48.5665V36.9096H131.298V48.4388H125.809V36.9096H118.628V48.4388H104.465V55.9069H108.622C109.755 55.9069 111.774 56.0346 112.612 56.992C113.449 57.9495 113.649 58.4601 113.649 60.3271C113.649 62.1941 113.649 89.3936 113.649 90.0957C113.676 90.4863 113.625 90.8783 113.497 91.2484C113.37 91.6186 113.169 91.9592 112.907 92.25C112.301 92.8245 111.694 92.9521 110.25 92.9521H105.941L104.465 101.593H118.62V113.09H125.801V101.593H131.282V113.09H138.463V101.402C140.322 101.29 142.053 101.154 143.066 101.019C147.002 100.672 150.79 99.3558 154.093 97.1888C158.426 94.1649 159.407 89.4255 159.503 84.6463C159.598 79.867 157.819 76.5957 155.362 74.7606ZM125.84 56.5771C125.84 56.5771 128.122 56.3777 130.38 56.4096C132.822 56.3688 135.254 56.719 137.585 57.4468C140.545 58.3564 142.293 60.5745 142.372 63.1995C142.443 64.3122 142.183 65.421 141.623 66.3855C141.063 67.3499 140.23 68.1265 139.229 68.617C136.916 69.7592 134.38 70.3776 131.801 70.4282C129.176 70.5319 125.816 70.4282 125.816 70.4282L125.84 56.5771ZM141.918 90.9574C140.274 91.867 136.979 92.6729 133.779 92.9043C130.58 93.1356 125.801 93.0399 125.801 93.0399V77.617C125.801 77.617 130.372 77.3856 133.939 77.617C136.659 77.7517 139.333 78.3676 141.838 79.4362C142.952 79.9048 143.9 80.6964 144.56 81.709C145.22 82.7215 145.561 83.9086 145.54 85.117C145.564 88.6516 143.561 90.0638 141.918 90.9574Z" fill="#274B5B"/>
</g>
<g clip-path="url(#clip1)" filter="url(#filter1_d)">
<path d="M81.8192 233.362C122.988 233.362 156.362 199.988 156.362 158.819C156.362 117.65 122.988 84.2766 81.8192 84.2766C40.6505 84.2766 7.27661 117.65 7.27661 158.819C7.27661 199.988 40.6505 233.362 81.8192 233.362Z" fill="#FFC742"/>
<path opacity="0.4" d="M154.723 158C154.713 168.605 152.441 179.086 148.057 188.743C143.674 198.399 137.28 207.009 129.303 213.998C121.327 220.986 111.951 226.193 101.801 229.268C91.6522 232.344 80.9635 233.219 70.4492 231.835C59.9349 230.45 49.8371 226.838 40.8301 221.24C31.8231 215.641 24.1144 208.186 18.2188 199.37C12.3231 190.555 8.37632 180.583 6.64194 170.121C4.90755 159.659 5.42552 148.947 8.16125 138.701C22.5085 152.527 41.6528 160.26 61.578 160.277C66.9521 160.357 72.2991 159.501 77.3793 157.746C89.2324 153.355 97.6287 142.6 103.24 131.279C106.516 124.595 109.171 117.501 113.561 111.464C117.083 106.671 121.631 102.725 126.872 99.9142C135.571 106.89 142.591 115.732 147.412 125.786C152.232 135.84 154.731 146.85 154.723 158V158Z" fill="#B27702"/>
<path opacity="0.5" d="M15.4681 159.638C15.4686 140.578 22.7706 122.242 35.8731 108.399C48.9756 94.5556 66.8832 86.2577 85.9149 85.2104C84.5606 85.134 83.1953 85.0957 81.8192 85.0957C62.0493 85.0957 43.0891 92.9493 29.1096 106.929C15.1302 120.908 7.27661 139.868 7.27661 159.638C7.27661 179.408 15.1302 198.368 29.1096 212.348C43.0891 226.327 62.0493 234.181 81.8192 234.181C83.1953 234.181 84.5606 234.143 85.9149 234.066C66.8832 233.019 48.9756 224.721 35.8731 210.878C22.7706 197.035 15.4686 178.699 15.4681 159.638V159.638Z" fill="#8A7683"/>
<path opacity="0.5" d="M146.532 158C146.531 177.061 139.229 195.397 126.127 209.24C113.024 223.083 95.1168 231.381 76.0851 232.428C77.4394 232.499 78.8047 232.537 80.1809 232.543C99.9508 232.543 118.911 224.689 132.89 210.71C146.87 196.73 154.723 177.77 154.723 158C154.723 138.23 146.87 119.27 132.89 105.29C118.911 91.311 99.9508 83.4574 80.1809 83.4574C78.8047 83.4574 77.4394 83.4957 76.0851 83.5721C95.1168 84.6194 113.024 92.9173 126.127 106.76C139.229 120.603 146.531 138.939 146.532 158Z" fill="#3F5A7C"/>
<path d="M81 235C65.7708 235 50.8836 230.484 38.2211 222.023C25.5585 213.562 15.6892 201.537 9.86125 187.467C4.0333 173.397 2.50844 157.915 5.47951 142.978C8.45057 128.041 15.7841 114.321 26.5528 103.553C37.3214 92.7841 51.0415 85.4506 65.978 82.4795C80.9146 79.5085 96.3967 81.0333 110.467 86.8613C124.537 92.6892 136.562 102.558 145.023 115.221C153.484 127.884 158 142.771 158 158C157.976 178.414 149.856 197.986 135.421 212.421C120.986 226.856 101.414 234.976 81 235V235ZM81 85.9149C66.7429 85.9149 52.806 90.1426 40.9516 98.0634C29.0973 105.984 19.858 117.242 14.402 130.414C8.94607 143.586 7.51854 158.08 10.3 172.063C13.0814 186.046 19.9468 198.891 30.0281 208.972C40.1094 219.053 52.9537 225.919 66.9369 228.7C80.92 231.481 95.4139 230.054 108.586 224.598C121.758 219.142 133.016 209.903 140.937 198.048C148.857 186.194 153.085 172.257 153.085 158C153.063 138.888 145.462 120.566 131.948 107.052C118.434 93.5382 100.111 85.9366 81 85.9149V85.9149Z" fill="#2E576D"/>
<path d="M80.5413 220.657C67.985 220.657 55.7106 216.933 45.2706 209.957C34.8305 202.981 26.6936 193.066 21.8889 181.465C17.0842 169.864 15.8274 157.099 18.2776 144.785C20.7279 132.47 26.7749 121.158 35.6542 112.28C44.5334 103.402 55.8459 97.3561 68.1612 94.9074C80.4764 92.4588 93.2412 93.7172 104.841 98.5234C116.441 103.33 126.356 111.468 133.33 121.909C140.305 132.35 144.027 144.625 144.025 157.181C144.004 174.01 137.308 190.144 125.407 202.044C113.506 213.944 97.3709 220.637 80.5413 220.657V220.657ZM80.5413 95.3269C68.3097 95.3269 56.3528 98.9539 46.1825 105.749C36.0122 112.545 28.0852 122.203 23.404 133.503C18.7228 144.804 17.4976 157.238 19.8833 169.235C22.2689 181.232 28.1584 192.252 36.8068 200.901C45.4553 209.551 56.4744 215.442 68.4707 217.829C80.4671 220.216 92.902 218.993 104.203 214.313C115.504 209.633 125.163 201.708 131.96 191.538C138.757 181.369 142.385 169.412 142.387 157.181C142.37 140.783 135.848 125.061 124.254 113.466C112.66 101.87 96.9392 95.3464 80.5413 95.3269V95.3269Z" fill="#2E576D"/>
<path d="M37.1384 186.519C37.7808 186.513 38.2965 185.987 38.2904 185.345C38.2842 184.703 37.7585 184.187 37.1161 184.193C36.4737 184.199 35.9579 184.725 35.9641 185.367C35.9703 186.01 36.496 186.526 37.1384 186.519Z" fill="white"/>
<path d="M37.1721 190.025C37.8145 190.019 38.3302 189.493 38.324 188.851C38.3179 188.208 37.7921 187.692 37.1497 187.699C36.5074 187.705 35.9916 188.231 35.9978 188.873C36.0039 189.515 36.5297 190.031 37.1721 190.025Z" fill="white"/>
<path d="M37.2056 193.522C37.848 193.516 38.3638 192.99 38.3576 192.348C38.3514 191.705 37.8257 191.19 37.1833 191.196C36.5409 191.202 36.0252 191.728 36.0313 192.37C36.0375 193.013 36.5633 193.528 37.2056 193.522Z" fill="white"/>
<path d="M33.8636 182.423C34.506 182.416 35.0218 181.891 35.0156 181.248C35.0094 180.606 34.4837 180.09 33.8413 180.096C33.1989 180.102 32.6832 180.628 32.6893 181.271C32.6955 181.913 33.2212 182.429 33.8636 182.423Z" fill="white"/>
<path d="M33.8973 185.928C34.5396 185.922 35.0554 185.396 35.0492 184.754C35.0431 184.111 34.5173 183.596 33.8749 183.602C33.2325 183.608 32.7168 184.134 32.723 184.776C32.7291 185.418 33.2549 185.934 33.8973 185.928Z" fill="white"/>
<path d="M33.9309 189.433C34.5732 189.427 35.089 188.902 35.0828 188.259C35.0767 187.617 34.5509 187.101 33.9085 187.107C33.2661 187.113 32.7504 187.639 32.7566 188.282C32.7627 188.924 33.2885 189.44 33.9309 189.433Z" fill="white"/>
<g opacity="0.5">
<path opacity="0.5" d="M132.16 133.274C132.803 133.268 133.318 132.742 133.312 132.1C133.306 131.458 132.78 130.942 132.138 130.948C131.496 130.954 130.98 131.48 130.986 132.122C130.992 132.765 131.518 133.28 132.16 133.274Z" fill="#3F5A7C"/>
<path opacity="0.5" d="M132.194 136.78C132.836 136.774 133.352 136.248 133.346 135.605C133.34 134.963 132.814 134.447 132.172 134.453C131.529 134.46 131.013 134.985 131.02 135.628C131.026 136.27 131.552 136.786 132.194 136.78Z" fill="#3F5A7C"/>
<path opacity="0.5" d="M132.228 140.277C132.87 140.271 133.386 139.745 133.379 139.103C133.373 138.46 132.848 137.945 132.205 137.951C131.563 137.957 131.047 138.483 131.053 139.125C131.059 139.767 131.585 140.283 132.228 140.277Z" fill="#3F5A7C"/>
<path opacity="0.5" d="M128.885 129.178C129.528 129.171 130.044 128.646 130.037 128.003C130.031 127.361 129.506 126.845 128.863 126.851C128.221 126.857 127.705 127.383 127.711 128.026C127.717 128.668 128.243 129.184 128.885 129.178Z" fill="#3F5A7C"/>
<path opacity="0.5" d="M128.919 132.683C129.561 132.677 130.077 132.151 130.071 131.509C130.065 130.866 129.539 130.35 128.897 130.357C128.254 130.363 127.739 130.889 127.745 131.531C127.751 132.173 128.277 132.689 128.919 132.683Z" fill="#3F5A7C"/>
<path opacity="0.5" d="M128.953 136.18C129.595 136.174 130.111 135.648 130.105 135.006C130.099 134.364 129.573 133.848 128.93 133.854C128.288 133.86 127.772 134.386 127.778 135.028C127.785 135.671 128.31 136.186 128.953 136.18Z" fill="#3F5A7C"/>
</g>
<g opacity="0.5">
<path opacity="0.5" d="M127.249 187.342C127.891 187.336 128.407 186.81 128.4 186.168C128.394 185.525 127.869 185.009 127.226 185.016C126.584 185.022 126.068 185.547 126.074 186.19C126.08 186.832 126.606 187.348 127.249 187.342Z" fill="#3F5A7C"/>
<path opacity="0.5" d="M127.282 190.847C127.925 190.841 128.44 190.315 128.434 189.673C128.428 189.031 127.902 188.515 127.26 188.521C126.617 188.527 126.102 189.053 126.108 189.695C126.114 190.338 126.64 190.854 127.282 190.847Z" fill="#3F5A7C"/>
<path opacity="0.5" d="M127.316 194.345C127.958 194.338 128.474 193.813 128.468 193.17C128.462 192.528 127.936 192.012 127.293 192.018C126.651 192.025 126.135 192.55 126.141 193.193C126.148 193.835 126.673 194.351 127.316 194.345Z" fill="#3F5A7C"/>
<path opacity="0.5" d="M123.974 183.245C124.616 183.239 125.132 182.713 125.126 182.071C125.12 181.428 124.594 180.913 123.951 180.919C123.309 180.925 122.793 181.451 122.799 182.093C122.806 182.736 123.331 183.251 123.974 183.245Z" fill="#3F5A7C"/>
<path opacity="0.5" d="M123.999 186.75C124.642 186.744 125.157 186.219 125.151 185.576C125.145 184.934 124.619 184.418 123.977 184.424C123.334 184.43 122.819 184.956 122.825 185.598C122.831 186.241 123.357 186.757 123.999 186.75Z" fill="#3F5A7C"/>
<path opacity="0.5" d="M124.033 190.248C124.675 190.242 125.191 189.716 125.185 189.073C125.179 188.431 124.653 187.915 124.01 187.921C123.368 187.928 122.852 188.453 122.858 189.096C122.865 189.738 123.39 190.254 124.033 190.248Z" fill="#3F5A7C"/>
</g>
<path d="M36.1759 126.555C36.5336 126.022 36.3911 125.299 35.8575 124.941C35.3239 124.584 34.6014 124.726 34.2436 125.26C33.8859 125.793 34.0284 126.516 34.562 126.874C35.0956 127.231 35.8181 127.089 36.1759 126.555Z" fill="white"/>
<path d="M34.229 129.458C34.5867 128.925 34.4442 128.202 33.9106 127.844C33.377 127.487 32.6545 127.629 32.2967 128.163C31.939 128.696 32.0815 129.419 32.6151 129.777C33.1487 130.134 33.8712 129.992 34.229 129.458Z" fill="white"/>
<path d="M32.2821 132.369C32.6398 131.836 32.4973 131.113 31.9637 130.755C31.4301 130.398 30.7076 130.54 30.3498 131.074C29.9921 131.607 30.1346 132.33 30.6682 132.688C31.2018 133.045 31.9243 132.903 32.2821 132.369Z" fill="white"/>
<path d="M35.7856 121.326C36.1433 120.792 36.0008 120.07 35.4672 119.712C34.9336 119.354 34.211 119.497 33.8533 120.03C33.4955 120.564 33.6381 121.286 34.1717 121.644C34.7053 122.002 35.4278 121.859 35.7856 121.326Z" fill="white"/>
<path d="M33.8364 124.225C34.1942 123.692 34.0516 122.969 33.518 122.611C32.9844 122.254 32.2619 122.396 31.9041 122.93C31.5464 123.463 31.6889 124.186 32.2225 124.544C32.7561 124.902 33.4787 124.759 33.8364 124.225Z" fill="white"/>
<path d="M31.8895 127.128C32.2473 126.595 32.1047 125.872 31.5711 125.514C31.0375 125.157 30.315 125.299 29.9572 125.833C29.5995 126.366 29.742 127.089 30.2756 127.447C30.8092 127.804 31.5318 127.662 31.8895 127.128Z" fill="white"/>
<g opacity="0.5">
<path opacity="0.5" d="M99.9982 225.073C100.61 224.876 100.946 224.221 100.749 223.61C100.552 222.998 99.8962 222.662 99.2847 222.859C98.6733 223.056 98.3373 223.712 98.5343 224.323C98.7313 224.934 99.3867 225.27 99.9982 225.073Z" fill="#3F5A7C"/>
<path opacity="0.5" d="M96.9759 225.575C97.5862 225.375 97.9195 224.719 97.7203 224.109C97.5212 223.499 96.865 223.165 96.2547 223.365C95.6444 223.564 95.3111 224.22 95.5102 224.83C95.7094 225.44 96.3656 225.774 96.9759 225.575Z" fill="#3F5A7C"/>
<path opacity="0.5" d="M93.3347 227.217C93.9461 227.02 94.2821 226.365 94.0851 225.753C93.8881 225.142 93.2327 224.806 92.6212 225.003C92.0097 225.2 91.6738 225.855 91.8708 226.467C92.0678 227.078 92.7232 227.414 93.3347 227.217Z" fill="#3F5A7C"/>
<path opacity="0.5" d="M102.93 220.722C103.541 220.525 103.877 219.87 103.68 219.258C103.483 218.647 102.828 218.311 102.216 218.508C101.605 218.705 101.269 219.36 101.466 219.972C101.663 220.583 102.318 220.919 102.93 220.722Z" fill="#3F5A7C"/>
<path opacity="0.5" d="M99.602 221.797C100.213 221.6 100.549 220.944 100.352 220.333C100.155 219.721 99.5 219.386 98.8885 219.583C98.2771 219.78 97.9411 220.435 98.1381 221.046C98.3352 221.658 98.9906 221.994 99.602 221.797Z" fill="#3F5A7C"/>
<path opacity="0.5" d="M96.2664 222.866C96.8778 222.669 97.2138 222.013 97.0167 221.402C96.8197 220.791 96.1643 220.455 95.5529 220.652C94.9414 220.849 94.6055 221.504 94.8025 222.115C94.9995 222.727 95.6549 223.063 96.2664 222.866Z" fill="#3F5A7C"/>
</g>
<path d="M29.313 173.415C29.9554 173.409 30.4711 172.883 30.4649 172.241C30.4588 171.598 29.933 171.083 29.2906 171.089C28.6483 171.095 28.1325 171.621 28.1387 172.263C28.1448 172.905 28.6706 173.421 29.313 173.415Z" fill="white"/>
<path d="M29.3384 176.921C29.9808 176.914 30.4966 176.389 30.4904 175.746C30.4842 175.104 29.9585 174.588 29.3161 174.594C28.6737 174.6 28.158 175.126 28.1641 175.769C28.1703 176.411 28.696 176.927 29.3384 176.921Z" fill="white"/>
<path d="M29.372 180.418C30.0144 180.412 30.5302 179.886 30.524 179.244C30.5178 178.601 29.9921 178.085 29.3497 178.092C28.7073 178.098 28.1916 178.623 28.1977 179.266C28.2039 179.908 28.7296 180.424 29.372 180.418Z" fill="white"/>
<path d="M18.7447 165.61H34.6526" stroke="#2E576D" stroke-miterlimit="10"/>
<path d="M35.9386 166.806C36.5991 166.806 37.1346 166.27 37.1346 165.61C37.1346 164.949 36.5991 164.414 35.9386 164.414C35.2781 164.414 34.7426 164.949 34.7426 165.61C34.7426 166.27 35.2781 166.806 35.9386 166.806Z" stroke="#2E576D" stroke-miterlimit="10"/>
<path d="M17.8928 162.317H31.0974" stroke="#2E576D" stroke-miterlimit="10"/>
<path d="M32.3835 163.513C33.044 163.513 33.5795 162.977 33.5795 162.317C33.5795 161.656 33.044 161.121 32.3835 161.121C31.723 161.121 31.1876 161.656 31.1876 162.317C31.1876 162.977 31.723 163.513 32.3835 163.513Z" stroke="#2E576D" stroke-miterlimit="10"/>
<path d="M17.8928 155.731H25.6993" stroke="#2E576D" stroke-miterlimit="10"/>
<path d="M26.9853 156.927C27.6458 156.927 28.1813 156.391 28.1813 155.731C28.1813 155.07 27.6458 154.535 26.9853 154.535C26.3248 154.535 25.7894 155.07 25.7894 155.731C25.7894 156.391 26.3248 156.927 26.9853 156.927Z" stroke="#2E576D" stroke-miterlimit="10"/>
<path d="M18.3187 159.024H34.2839" stroke="#2E576D" stroke-miterlimit="10"/>
<path d="M35.57 160.22C36.2305 160.22 36.766 159.684 36.766 159.024C36.766 158.363 36.2305 157.828 35.57 157.828C34.9095 157.828 34.3741 158.363 34.3741 159.024C34.3741 159.684 34.9095 160.22 35.57 160.22Z" stroke="#2E576D" stroke-miterlimit="10"/>
<path d="M141.945 165.61H126.037" stroke="#2E576D" stroke-miterlimit="10"/>
<path d="M124.751 166.806C125.411 166.806 125.947 166.27 125.947 165.61C125.947 164.949 125.411 164.414 124.751 164.414C124.09 164.414 123.555 164.949 123.555 165.61C123.555 166.27 124.09 166.806 124.751 166.806Z" stroke="#2E576D" stroke-miterlimit="10"/>
<path d="M142.797 162.317H129.592" stroke="#2E576D" stroke-miterlimit="10"/>
<path d="M128.306 163.513C128.966 163.513 129.502 162.977 129.502 162.317C129.502 161.656 128.966 161.121 128.306 161.121C127.645 161.121 127.11 161.656 127.11 162.317C127.11 162.977 127.645 163.513 128.306 163.513Z" stroke="#2E576D" stroke-miterlimit="10"/>
<path d="M142.797 155.731H134.99" stroke="#2E576D" stroke-miterlimit="10"/>
<path d="M133.712 156.927C134.373 156.927 134.908 156.391 134.908 155.731C134.908 155.07 134.373 154.535 133.712 154.535C133.052 154.535 132.516 155.07 132.516 155.731C132.516 156.391 133.052 156.927 133.712 156.927Z" stroke="#2E576D" stroke-miterlimit="10"/>
<path d="M142.371 159.024H126.405" stroke="#2E576D" stroke-miterlimit="10"/>
<path d="M125.119 160.22C125.78 160.22 126.315 159.684 126.315 159.024C126.315 158.363 125.78 157.828 125.119 157.828C124.459 157.828 123.923 158.363 123.923 159.024C123.923 159.684 124.459 160.22 125.119 160.22Z" stroke="#2E576D" stroke-miterlimit="10"/>
<path d="M104.985 157.754C103.132 156.495 101.059 155.595 98.8738 155.1C98.8738 155.1 101.913 153.339 103.15 151.578C104.26 149.791 104.934 147.768 105.116 145.672C105.222 144.255 105.46 138.299 100.832 134.9C97.2519 132.254 93.1562 131.206 87.6515 130.862V118.894H80.2792V130.731H74.6434V118.894H67.2711V130.731H52.7312V138.398H56.9989C58.1621 138.398 60.2346 138.529 61.0947 139.512C61.9548 140.495 62.1596 141.019 62.1596 142.936C62.1596 144.853 62.1596 172.777 62.1596 173.498C62.1878 173.899 62.1348 174.302 62.0039 174.682C61.8731 175.062 61.6669 175.411 61.3978 175.71C60.7752 176.3 60.1527 176.431 58.67 176.431H54.2466L52.7312 185.302H67.2629V197.106H74.6352V185.302H80.2628V197.106H87.6351V185.106C89.5437 184.991 91.3213 184.852 92.3616 184.712C96.4018 184.356 100.291 183.005 103.682 180.781C108.13 177.676 109.138 172.81 109.236 167.904C109.334 162.997 107.508 159.638 104.985 157.754ZM74.6762 139.086C74.6762 139.086 77.0189 138.881 79.3371 138.914C81.8438 138.872 84.341 139.231 86.734 139.979C89.7731 140.913 91.567 143.19 91.6489 145.885C91.7219 147.027 91.4541 148.166 90.8796 149.156C90.305 150.146 89.4495 150.943 88.4215 151.447C86.0469 152.619 83.4431 153.254 80.7952 153.306C78.1002 153.413 74.6516 153.306 74.6516 153.306L74.6762 139.086ZM91.182 174.383C89.4946 175.317 86.1115 176.144 82.8267 176.382C79.5419 176.619 74.6352 176.521 74.6352 176.521V160.687C74.6352 160.687 79.3289 160.449 82.9905 160.687C85.7829 160.825 88.5286 161.457 91.1001 162.554C92.2439 163.036 93.2173 163.848 93.8948 164.888C94.5722 165.927 94.9227 167.146 94.901 168.387C94.9255 172.016 92.8695 173.466 91.182 174.383Z" fill="#274B5B"/>
</g>
<g clip-path="url(#clip2)" filter="url(#filter2_d)">
<path d="M188 245C238.258 245 279 204.258 279 154C279 103.742 238.258 63 188 63C137.742 63 97 103.742 97 154C97 204.258 137.742 245 188 245Z" fill="#FFC742"/>
<path opacity="0.4" d="M277 153C276.988 165.946 274.213 178.741 268.862 190.53C263.511 202.319 255.705 212.83 245.968 221.361C236.23 229.893 224.784 236.248 212.394 240.003C200.004 243.758 186.955 244.826 174.12 243.136C161.284 241.446 148.957 237.036 137.961 230.202C126.966 223.368 117.555 214.266 110.358 203.504C103.161 192.743 98.3425 180.569 96.2252 167.797C94.1079 155.025 94.7403 141.948 98.08 129.44C115.595 146.319 138.966 155.759 163.29 155.78C169.851 155.878 176.378 154.832 182.58 152.69C197.05 147.33 207.3 134.2 214.15 120.38C218.15 112.22 221.39 103.56 226.75 96.19C231.05 90.3389 236.601 85.5217 243 82.09C253.619 90.6056 262.189 101.4 268.074 113.674C273.959 125.948 277.01 139.388 277 153V153Z" fill="#B27702"/>
<path opacity="0.5" d="M107 155C107.001 131.731 115.915 109.347 131.91 92.4476C147.905 75.5484 169.766 65.4185 193 64.14C191.347 64.0467 189.68 64 188 64C163.865 64 140.719 73.5875 123.653 90.6533C106.587 107.719 97 130.865 97 155C97 179.135 106.587 202.281 123.653 219.347C140.719 236.413 163.865 246 188 246C189.68 246 191.347 245.953 193 245.86C169.766 244.582 147.905 234.452 131.91 217.552C115.915 200.653 107.001 178.269 107 155V155Z" fill="#8A7683"/>
<path opacity="0.5" d="M267 153C266.999 176.269 258.085 198.653 242.09 215.552C226.095 232.452 204.234 242.582 181 243.86C182.653 243.947 184.32 243.993 186 244C210.135 244 233.281 234.413 250.347 217.347C267.413 200.281 277 177.135 277 153C277 128.865 267.413 105.719 250.347 88.6533C233.281 71.5875 210.135 62 186 62C184.32 62 182.653 62.0467 181 62.14C204.234 63.4185 226.095 73.5484 242.09 90.4476C258.085 107.347 266.999 129.731 267 153Z" fill="#3F5A7C"/>
<path d="M187 247C168.409 247 150.235 241.487 134.776 231.158C119.318 220.829 107.27 206.148 100.155 188.972C93.0407 171.796 91.1792 152.896 94.8062 134.662C98.4332 116.427 107.386 99.6781 120.532 86.532C133.678 73.3858 150.427 64.4332 168.662 60.8062C186.896 57.1792 205.796 59.0407 222.972 66.1553C240.149 73.27 254.829 85.3182 265.158 100.776C275.487 116.235 281 134.409 281 153C280.971 177.921 271.058 201.814 253.436 219.436C235.814 237.058 211.921 246.971 187 247V247ZM187 65C169.595 65 152.581 70.1611 138.11 79.8307C123.638 89.5002 112.359 103.244 105.699 119.324C99.0381 135.404 97.2954 153.098 100.691 170.168C104.086 187.238 112.468 202.918 124.775 215.225C137.082 227.532 152.762 235.914 169.832 239.309C186.902 242.705 204.596 240.962 220.676 234.301C236.756 227.641 250.5 216.362 260.169 201.89C269.839 187.419 275 170.405 275 153C274.974 129.669 265.694 107.301 249.196 90.8038C232.699 74.3064 210.331 65.0265 187 65V65Z" fill="#2E576D"/>
<path d="M186.44 229.49C171.112 229.49 156.127 224.944 143.382 216.428C130.637 207.912 120.704 195.808 114.838 181.646C108.973 167.484 107.439 151.901 110.43 136.867C113.421 121.833 120.803 108.024 131.643 97.1857C142.482 86.3475 156.292 78.9671 171.327 75.9779C186.361 72.9887 201.944 74.5249 216.105 80.3922C230.266 86.2595 242.369 96.1944 250.884 108.941C259.398 121.687 263.942 136.672 263.94 152C263.914 172.545 255.74 192.241 241.211 206.768C226.682 221.295 206.985 229.466 186.44 229.49V229.49ZM186.44 76.49C171.508 76.49 156.911 80.9177 144.495 89.2133C132.08 97.5089 122.403 109.3 116.688 123.095C110.973 136.89 109.478 152.07 112.39 166.716C115.302 181.361 122.492 194.814 133.05 205.373C143.608 215.932 157.06 223.124 171.705 226.038C186.349 228.952 201.53 227.459 215.326 221.746C229.122 216.033 240.914 206.357 249.211 193.943C257.508 181.528 261.938 166.932 261.94 152C261.919 131.982 253.958 112.789 239.804 98.6333C225.65 84.4773 206.458 76.5138 186.44 76.49V76.49Z" fill="#2E576D"/>
<path d="M133.455 187.816C134.239 187.808 134.869 187.167 134.861 186.382C134.853 185.598 134.212 184.968 133.427 184.976C132.643 184.984 132.014 185.625 132.021 186.41C132.029 187.194 132.67 187.823 133.455 187.816Z" fill="white"/>
<path d="M133.496 192.095C134.28 192.088 134.91 191.446 134.902 190.662C134.895 189.878 134.253 189.248 133.469 189.255C132.684 189.263 132.055 189.905 132.062 190.689C132.07 191.473 132.712 192.103 133.496 192.095Z" fill="white"/>
<path d="M133.537 196.365C134.321 196.357 134.951 195.715 134.943 194.931C134.936 194.147 134.294 193.517 133.51 193.525C132.725 193.532 132.096 194.174 132.103 194.958C132.111 195.743 132.753 196.372 133.537 196.365Z" fill="white"/>
<path d="M129.457 182.815C130.241 182.807 130.871 182.165 130.863 181.381C130.856 180.597 130.214 179.967 129.43 179.975C128.645 179.982 128.016 180.624 128.023 181.408C128.031 182.192 128.673 182.822 129.457 182.815Z" fill="white"/>
<path d="M129.498 187.094C130.282 187.086 130.912 186.445 130.904 185.66C130.897 184.876 130.255 184.247 129.471 184.254C128.687 184.262 128.057 184.903 128.064 185.688C128.072 186.472 128.714 187.101 129.498 187.094Z" fill="white"/>
<path d="M129.539 191.373C130.323 191.366 130.953 190.724 130.945 189.94C130.938 189.156 130.296 188.526 129.512 188.533C128.727 188.541 128.098 189.183 128.105 189.967C128.113 190.751 128.755 191.381 129.539 191.373Z" fill="white"/>
<g opacity="0.5">
<path opacity="0.5" d="M249.455 122.815C250.24 122.808 250.869 122.166 250.862 121.382C250.854 120.598 250.212 119.968 249.428 119.976C248.644 119.983 248.014 120.625 248.022 121.409C248.029 122.193 248.671 122.823 249.455 122.815Z" fill="#3F5A7C"/>
<path opacity="0.5" d="M249.497 127.095C250.281 127.087 250.91 126.445 250.903 125.661C250.895 124.877 250.253 124.247 249.469 124.255C248.685 124.262 248.055 124.904 248.063 125.688C248.07 126.473 248.712 127.102 249.497 127.095Z" fill="#3F5A7C"/>
<path opacity="0.5" d="M249.537 131.364C250.322 131.357 250.951 130.715 250.944 129.931C250.936 129.146 250.294 128.517 249.51 128.524C248.726 128.532 248.096 129.174 248.104 129.958C248.111 130.742 248.753 131.372 249.537 131.364Z" fill="#3F5A7C"/>
<path opacity="0.5" d="M245.458 117.814C246.242 117.806 246.871 117.165 246.864 116.38C246.856 115.596 246.215 114.967 245.43 114.974C244.646 114.982 244.017 115.623 244.024 116.408C244.032 117.192 244.673 117.822 245.458 117.814Z" fill="#3F5A7C"/>
<path opacity="0.5" d="M245.499 122.093C246.283 122.086 246.913 121.444 246.905 120.66C246.897 119.876 246.256 119.246 245.471 119.254C244.687 119.261 244.058 119.903 244.065 120.687C244.073 121.471 244.714 122.101 245.499 122.093Z" fill="#3F5A7C"/>
<path opacity="0.5" d="M245.54 126.363C246.324 126.355 246.953 125.713 246.946 124.929C246.938 124.145 246.297 123.515 245.512 123.523C244.728 123.53 244.099 124.172 244.106 124.957C244.114 125.741 244.755 126.37 245.54 126.363Z" fill="#3F5A7C"/>
</g>
<g opacity="0.5">
<path opacity="0.5" d="M243.459 188.82C244.243 188.812 244.873 188.171 244.866 187.386C244.858 186.602 244.216 185.973 243.432 185.98C242.648 185.988 242.018 186.629 242.026 187.414C242.033 188.198 242.675 188.827 243.459 188.82Z" fill="#3F5A7C"/>
<path opacity="0.5" d="M243.5 193.099C244.285 193.092 244.914 192.45 244.907 191.666C244.899 190.882 244.257 190.252 243.473 190.259C242.689 190.267 242.059 190.909 242.067 191.693C242.074 192.477 242.716 193.107 243.5 193.099Z" fill="#3F5A7C"/>
<path opacity="0.5" d="M243.541 197.369C244.326 197.361 244.955 196.719 244.948 195.935C244.94 195.151 244.298 194.521 243.514 194.529C242.73 194.536 242.1 195.178 242.108 195.962C242.115 196.747 242.757 197.376 243.541 197.369Z" fill="#3F5A7C"/>
<path opacity="0.5" d="M239.461 183.819C240.246 183.811 240.875 183.169 240.868 182.385C240.86 181.601 240.218 180.971 239.434 180.979C238.65 180.986 238.02 181.628 238.028 182.412C238.035 183.196 238.677 183.826 239.461 183.819Z" fill="#3F5A7C"/>
<path opacity="0.5" d="M239.492 188.098C240.277 188.09 240.906 187.449 240.899 186.664C240.891 185.88 240.249 185.251 239.465 185.258C238.681 185.266 238.051 185.907 238.059 186.692C238.066 187.476 238.708 188.105 239.492 188.098Z" fill="#3F5A7C"/>
<path opacity="0.5" d="M239.533 192.367C240.318 192.36 240.947 191.718 240.94 190.934C240.932 190.15 240.29 189.52 239.506 189.528C238.722 189.535 238.092 190.177 238.1 190.961C238.107 191.745 238.749 192.375 239.533 192.367Z" fill="#3F5A7C"/>
</g>
<path d="M132.28 114.613C132.716 113.962 132.542 113.08 131.891 112.643C131.24 112.206 130.357 112.38 129.921 113.031C129.484 113.683 129.658 114.565 130.309 115.002C130.961 115.438 131.843 115.264 132.28 114.613Z" fill="white"/>
<path d="M129.903 118.157C130.34 117.505 130.166 116.623 129.514 116.186C128.863 115.75 127.981 115.924 127.544 116.575C127.107 117.227 127.281 118.109 127.933 118.545C128.584 118.982 129.466 118.808 129.903 118.157Z" fill="white"/>
<path d="M127.526 121.71C127.963 121.059 127.789 120.177 127.137 119.74C126.486 119.303 125.604 119.478 125.167 120.129C124.731 120.78 124.905 121.662 125.556 122.099C126.207 122.536 127.089 122.362 127.526 121.71Z" fill="white"/>
<path d="M131.803 108.229C132.24 107.577 132.066 106.695 131.414 106.259C130.763 105.822 129.881 105.996 129.444 106.647C129.008 107.299 129.182 108.181 129.833 108.617C130.484 109.054 131.366 108.88 131.803 108.229Z" fill="white"/>
<path d="M129.424 111.769C129.86 111.117 129.686 110.235 129.035 109.798C128.384 109.362 127.502 109.536 127.065 110.187C126.628 110.839 126.802 111.721 127.453 112.157C128.105 112.594 128.987 112.42 129.424 111.769Z" fill="white"/>
<path d="M127.047 115.312C127.484 114.661 127.31 113.779 126.658 113.342C126.007 112.905 125.125 113.079 124.688 113.731C124.251 114.382 124.425 115.264 125.077 115.701C125.728 116.138 126.61 115.964 127.047 115.312Z" fill="white"/>
<g opacity="0.5">
<path opacity="0.5" d="M210.193 234.882C210.939 234.641 211.349 233.841 211.109 233.095C210.868 232.348 210.068 231.938 209.322 232.179C208.575 232.419 208.165 233.219 208.406 233.966C208.646 234.712 209.446 235.122 210.193 234.882Z" fill="#3F5A7C"/>
<path opacity="0.5" d="M206.503 235.494C207.248 235.251 207.655 234.449 207.412 233.704C207.169 232.959 206.368 232.553 205.623 232.796C204.878 233.039 204.471 233.84 204.714 234.585C204.957 235.33 205.758 235.737 206.503 235.494Z" fill="#3F5A7C"/>
<path opacity="0.5" d="M202.058 237.499C202.804 237.258 203.215 236.458 202.974 235.712C202.734 234.965 201.933 234.555 201.187 234.796C200.441 235.036 200.03 235.837 200.271 236.583C200.511 237.329 201.312 237.74 202.058 237.499Z" fill="#3F5A7C"/>
<path opacity="0.5" d="M213.772 229.57C214.518 229.329 214.928 228.529 214.688 227.783C214.447 227.036 213.647 226.626 212.901 226.867C212.154 227.107 211.744 227.907 211.985 228.654C212.225 229.4 213.025 229.81 213.772 229.57Z" fill="#3F5A7C"/>
<path opacity="0.5" d="M209.709 230.882C210.455 230.641 210.866 229.841 210.625 229.095C210.385 228.348 209.584 227.938 208.838 228.179C208.092 228.419 207.681 229.219 207.922 229.966C208.162 230.712 208.963 231.122 209.709 230.882Z" fill="#3F5A7C"/>
<path opacity="0.5" d="M205.637 232.187C206.383 231.946 206.793 231.146 206.553 230.4C206.312 229.653 205.512 229.243 204.766 229.484C204.019 229.724 203.609 230.524 203.85 231.271C204.09 232.017 204.89 232.427 205.637 232.187Z" fill="#3F5A7C"/>
</g>
<path d="M123.902 171.818C124.686 171.811 125.315 171.169 125.308 170.385C125.3 169.601 124.658 168.971 123.874 168.978C123.09 168.986 122.46 169.628 122.468 170.412C122.476 171.196 123.117 171.826 123.902 171.818Z" fill="white"/>
<path d="M123.933 176.098C124.717 176.09 125.346 175.448 125.339 174.664C125.331 173.88 124.69 173.25 123.905 173.258C123.121 173.265 122.492 173.907 122.499 174.691C122.507 175.476 123.148 176.105 123.933 176.098Z" fill="white"/>
<path d="M123.974 180.367C124.758 180.36 125.387 179.718 125.38 178.934C125.372 178.149 124.731 177.52 123.946 177.527C123.162 177.535 122.533 178.177 122.54 178.961C122.548 179.745 123.189 180.375 123.974 180.367Z" fill="white"/>
<path d="M111 162.29H130.42" stroke="#2E576D" stroke-miterlimit="10"/>
<path d="M131.99 163.75C132.796 163.75 133.45 163.096 133.45 162.29C133.45 161.484 132.796 160.83 131.99 160.83C131.184 160.83 130.53 161.484 130.53 162.29C130.53 163.096 131.184 163.75 131.99 163.75Z" stroke="#2E576D" stroke-miterlimit="10"/>
<path d="M109.96 158.27H126.08" stroke="#2E576D" stroke-miterlimit="10"/>
<path d="M127.65 159.73C128.456 159.73 129.11 159.076 129.11 158.27C129.11 157.464 128.456 156.81 127.65 156.81C126.844 156.81 126.19 157.464 126.19 158.27C126.19 159.076 126.844 159.73 127.65 159.73Z" stroke="#2E576D" stroke-miterlimit="10"/>
<path d="M109.96 150.23H119.49" stroke="#2E576D" stroke-miterlimit="10"/>
<path d="M121.06 151.69C121.866 151.69 122.52 151.036 122.52 150.23C122.52 149.424 121.866 148.77 121.06 148.77C120.254 148.77 119.6 149.424 119.6 150.23C119.6 151.036 120.254 151.69 121.06 151.69Z" stroke="#2E576D" stroke-miterlimit="10"/>
<path d="M110.48 154.25H129.97" stroke="#2E576D" stroke-miterlimit="10"/>
<path d="M131.54 155.71C132.346 155.71 133 155.056 133 154.25C133 153.444 132.346 152.79 131.54 152.79C130.734 152.79 130.08 153.444 130.08 154.25C130.08 155.056 130.734 155.71 131.54 155.71Z" stroke="#2E576D" stroke-miterlimit="10"/>
<path d="M261.4 162.29H241.98" stroke="#2E576D" stroke-miterlimit="10"/>
<path d="M240.41 163.75C241.216 163.75 241.87 163.096 241.87 162.29C241.87 161.484 241.216 160.83 240.41 160.83C239.604 160.83 238.95 161.484 238.95 162.29C238.95 163.096 239.604 163.75 240.41 163.75Z" stroke="#2E576D" stroke-miterlimit="10"/>
<path d="M262.44 158.27H246.32" stroke="#2E576D" stroke-miterlimit="10"/>
<path d="M244.75 159.73C245.556 159.73 246.21 159.076 246.21 158.27C246.21 157.464 245.556 156.81 244.75 156.81C243.944 156.81 243.29 157.464 243.29 158.27C243.29 159.076 243.944 159.73 244.75 159.73Z" stroke="#2E576D" stroke-miterlimit="10"/>
<path d="M262.44 150.23H252.91" stroke="#2E576D" stroke-miterlimit="10"/>
<path d="M251.35 151.69C252.156 151.69 252.81 151.036 252.81 150.23C252.81 149.424 252.156 148.77 251.35 148.77C250.544 148.77 249.89 149.424 249.89 150.23C249.89 151.036 250.544 151.69 251.35 151.69Z" stroke="#2E576D" stroke-miterlimit="10"/>
<path d="M261.92 154.25H242.43" stroke="#2E576D" stroke-miterlimit="10"/>
<path d="M240.86 155.71C241.666 155.71 242.32 155.056 242.32 154.25C242.32 153.444 241.666 152.79 240.86 152.79C240.054 152.79 239.4 153.444 239.4 154.25C239.4 155.056 240.054 155.71 240.86 155.71Z" stroke="#2E576D" stroke-miterlimit="10"/>
<path d="M216.28 152.7C214.018 151.163 211.488 150.064 208.82 149.46C208.82 149.46 212.53 147.31 214.04 145.16C215.396 142.979 216.218 140.509 216.44 137.95C216.57 136.22 216.86 128.95 211.21 124.8C206.84 121.57 201.84 120.29 195.12 119.87V105.26H186.12V119.71H179.24V105.26H170.24V119.71H152.49V129.07H157.7C159.12 129.07 161.65 129.23 162.7 130.43C163.75 131.63 164 132.27 164 134.61C164 136.95 164 171.04 164 171.92C164.034 172.409 163.97 172.901 163.81 173.365C163.65 173.829 163.399 174.256 163.07 174.62C162.31 175.34 161.55 175.5 159.74 175.5H154.34L152.49 186.33H170.23V200.74H179.23V186.33H186.1V200.74H195.1V186.09C197.43 185.95 199.6 185.78 200.87 185.61C205.802 185.175 210.55 183.526 214.69 180.81C220.12 177.02 221.35 171.08 221.47 165.09C221.59 159.1 219.36 155 216.28 152.7ZM179.28 129.91C179.28 129.91 182.14 129.66 184.97 129.7C188.03 129.649 191.079 130.088 194 131C197.71 132.14 199.9 134.92 200 138.21C200.089 139.605 199.762 140.994 199.061 142.203C198.359 143.412 197.315 144.385 196.06 145C193.161 146.432 189.982 147.207 186.75 147.27C183.46 147.4 179.25 147.27 179.25 147.27L179.28 129.91ZM199.43 173C197.37 174.14 193.24 175.15 189.23 175.44C185.22 175.73 179.23 175.61 179.23 175.61V156.28C179.23 156.28 184.96 155.99 189.43 156.28C192.839 156.449 196.191 157.221 199.33 158.56C200.726 159.147 201.915 160.139 202.742 161.409C203.569 162.678 203.997 164.165 203.97 165.68C204 170.11 201.49 171.88 199.43 173Z" fill="#274B5B"/>
</g>
<defs>
<filter id="filter0_d" x="53" y="0" width="158" height="158" filterUnits="userSpaceOnUse" color-interpolation-filters="sRGB">
<feFlood flood-opacity="0" result="BackgroundImageFix"/>
<feColorMatrix in="SourceAlpha" type="matrix" values="0 0 0 0 0 0 0 0 0 0 0 0 0 0 0 0 0 0 127 0"/>
<feOffset dy="4"/>
<feGaussianBlur stdDeviation="2"/>
<feColorMatrix type="matrix" values="0 0 0 0 0 0 0 0 0 0 0 0 0 0 0 0 0 0 0.25 0"/>
<feBlend mode="normal" in2="BackgroundImageFix" result="effect1_dropShadow"/>
<feBlend mode="normal" in="SourceGraphic" in2="effect1_dropShadow" result="shape"/>
</filter>
<filter id="filter1_d" x="0" y="81" width="162" height="162" filterUnits="userSpaceOnUse" color-interpolation-filters="sRGB">
<feFlood flood-opacity="0" result="BackgroundImageFix"/>
<feColorMatrix in="SourceAlpha" type="matrix" values="0 0 0 0 0 0 0 0 0 0 0 0 0 0 0 0 0 0 127 0"/>
<feOffset dy="4"/>
<feGaussianBlur stdDeviation="2"/>
<feColorMatrix type="matrix" values="0 0 0 0 0 0 0 0 0 0 0 0 0 0 0 0 0 0 0.25 0"/>
<feBlend mode="normal" in2="BackgroundImageFix" result="effect1_dropShadow"/>
<feBlend mode="normal" in="SourceGraphic" in2="effect1_dropShadow" result="shape"/>
</filter>
<filter id="filter2_d" x="89" y="59" width="196" height="196" filterUnits="userSpaceOnUse" color-interpolation-filters="sRGB">
<feFlood flood-opacity="0" result="BackgroundImageFix"/>
<feColorMatrix in="SourceAlpha" type="matrix" values="0 0 0 0 0 0 0 0 0 0 0 0 0 0 0 0 0 0 127 0"/>
<feOffset dy="4"/>
<feGaussianBlur stdDeviation="2"/>
<feColorMatrix type="matrix" values="0 0 0 0 0 0 0 0 0 0 0 0 0 0 0 0 0 0 0.25 0"/>
<feBlend mode="normal" in2="BackgroundImageFix" result="effect1_dropShadow"/>
<feBlend mode="normal" in="SourceGraphic" in2="effect1_dropShadow" result="shape"/>
</filter>
<clipPath id="clip0">
<rect width="150" height="150" fill="white" transform="translate(57)"/>
</clipPath>
<clipPath id="clip1">
<rect width="154" height="154" fill="white" transform="translate(4 81)"/>
</clipPath>
<clipPath id="clip2">
<rect width="188" height="188" fill="white" transform="translate(93 59)"/>
</clipPath>
</defs>
</svg>
