<svg width="289" height="37" viewBox="0 0 289 37" fill="none" xmlns="http://www.w3.org/2000/svg">
<path d="M0.188 14.328C0.188 11.832 0.728 9.612 1.808 7.668C2.888 5.7 4.388 4.176 6.308 3.096C8.252 1.992 10.448 1.44 12.896 1.44C15.896 1.44 18.464 2.232 20.6 3.816C22.736 5.4 24.164 7.56 24.884 10.296H18.116C17.612 9.24 16.892 8.436 15.956 7.884C15.044 7.332 14 7.056 12.824 7.056C10.928 7.056 9.392 7.716 8.216 9.036C7.04 10.356 6.452 12.12 6.452 14.328C6.452 16.536 7.04 18.3 8.216 19.62C9.392 20.94 10.928 21.6 12.824 21.6C14 21.6 15.044 21.324 15.956 20.772C16.892 20.22 17.612 19.416 18.116 18.36H24.884C24.164 21.096 22.736 23.256 20.6 24.84C18.464 26.4 15.896 27.18 12.896 27.18C10.448 27.18 8.252 26.64 6.308 25.56C4.388 24.456 2.888 22.932 1.808 20.988C0.728 19.044 0.188 16.824 0.188 14.328ZM34.8099 10.26C35.5299 9.156 36.4299 8.292 37.5099 7.668C38.5899 7.02 39.7899 6.696 41.1099 6.696V13.212H39.4179C37.8819 13.212 36.7299 13.548 35.9619 14.22C35.1939 14.868 34.8099 16.02 34.8099 17.676V27H28.6539V6.912H34.8099V10.26ZM64.5723 6.912L51.9723 36.54H45.3483L49.9563 26.316L41.7843 6.912H48.6603L53.3043 19.476L57.9123 6.912H64.5723ZM72.9544 9.756C73.5544 8.82 74.3824 8.064 75.4384 7.488C76.4944 6.912 77.7304 6.624 79.1464 6.624C80.8024 6.624 82.3024 7.044 83.6464 7.884C84.9904 8.724 86.0464 9.924 86.8144 11.484C87.6064 13.044 88.0024 14.856 88.0024 16.92C88.0024 18.984 87.6064 20.808 86.8144 22.392C86.0464 23.952 84.9904 25.164 83.6464 26.028C82.3024 26.868 80.8024 27.288 79.1464 27.288C77.7544 27.288 76.5184 27 75.4384 26.424C74.3824 25.848 73.5544 25.104 72.9544 24.192V36.576H66.7984V6.912H72.9544V9.756ZM81.7384 16.92C81.7384 15.384 81.3064 14.184 80.4424 13.32C79.6024 12.432 78.5584 11.988 77.3104 11.988C76.0864 11.988 75.0424 12.432 74.1784 13.32C73.3384 14.208 72.9184 15.42 72.9184 16.956C72.9184 18.492 73.3384 19.704 74.1784 20.592C75.0424 21.48 76.0864 21.924 77.3104 21.924C78.5344 21.924 79.5784 21.48 80.4424 20.592C81.3064 19.68 81.7384 18.456 81.7384 16.92ZM102.428 21.78V27H99.296C97.064 27 95.324 26.46 94.076 25.38C92.828 24.276 92.204 22.488 92.204 20.016V12.024H89.756V6.912H92.204V2.016H98.36V6.912H102.392V12.024H98.36V20.088C98.36 20.688 98.504 21.12 98.792 21.384C99.08 21.648 99.56 21.78 100.232 21.78H102.428ZM115.001 27.288C113.033 27.288 111.257 26.868 109.673 26.028C108.113 25.188 106.877 23.988 105.965 22.428C105.077 20.868 104.633 19.044 104.633 16.956C104.633 14.892 105.089 13.08 106.001 11.52C106.913 9.936 108.161 8.724 109.745 7.884C111.329 7.044 113.105 6.624 115.073 6.624C117.041 6.624 118.817 7.044 120.401 7.884C121.985 8.724 123.233 9.936 124.145 11.52C125.057 13.08 125.513 14.892 125.513 16.956C125.513 19.02 125.045 20.844 124.109 22.428C123.197 23.988 121.937 25.188 120.329 26.028C118.745 26.868 116.969 27.288 115.001 27.288ZM115.001 21.96C116.177 21.96 117.173 21.528 117.989 20.664C118.829 19.8 119.249 18.564 119.249 16.956C119.249 15.348 118.841 14.112 118.025 13.248C117.233 12.384 116.249 11.952 115.073 11.952C113.873 11.952 112.877 12.384 112.085 13.248C111.293 14.088 110.897 15.324 110.897 16.956C110.897 18.564 111.281 19.8 112.049 20.664C112.841 21.528 113.825 21.96 115.001 21.96ZM152.86 1.728V6.66H142.564V11.988H150.268V16.776H142.564V27H136.408V1.728H152.86ZM175.931 6.912V27H169.775V24.264C169.151 25.152 168.299 25.872 167.219 26.424C166.163 26.952 164.987 27.216 163.691 27.216C162.155 27.216 160.799 26.88 159.623 26.208C158.447 25.512 157.535 24.516 156.887 23.22C156.239 21.924 155.915 20.4 155.915 18.648V6.912H162.035V17.82C162.035 19.164 162.383 20.208 163.079 20.952C163.775 21.696 164.711 22.068 165.887 22.068C167.087 22.068 168.035 21.696 168.731 20.952C169.427 20.208 169.775 19.164 169.775 17.82V6.912H175.931ZM192.593 6.696C194.945 6.696 196.817 7.464 198.209 9C199.625 10.512 200.333 12.6 200.333 15.264V27H194.213V16.092C194.213 14.748 193.865 13.704 193.169 12.96C192.473 12.216 191.537 11.844 190.361 11.844C189.185 11.844 188.249 12.216 187.553 12.96C186.857 13.704 186.509 14.748 186.509 16.092V27H180.353V6.912H186.509V9.576C187.133 8.688 187.973 7.992 189.029 7.488C190.085 6.96 191.273 6.696 192.593 6.696ZM203.387 16.92C203.387 14.856 203.771 13.044 204.539 11.484C205.331 9.924 206.399 8.724 207.743 7.884C209.087 7.044 210.587 6.624 212.243 6.624C213.563 6.624 214.763 6.9 215.843 7.452C216.947 8.004 217.811 8.748 218.435 9.684V0.36H224.591V27H218.435V24.12C217.859 25.08 217.031 25.848 215.951 26.424C214.895 27 213.659 27.288 212.243 27.288C210.587 27.288 209.087 26.868 207.743 26.028C206.399 25.164 205.331 23.952 204.539 22.392C203.771 20.808 203.387 18.984 203.387 16.92ZM218.435 16.956C218.435 15.42 218.003 14.208 217.139 13.32C216.299 12.432 215.267 11.988 214.043 11.988C212.819 11.988 211.775 12.432 210.911 13.32C210.071 14.184 209.651 15.384 209.651 16.92C209.651 18.456 210.071 19.68 210.911 20.592C211.775 21.48 212.819 21.924 214.043 21.924C215.267 21.924 216.299 21.48 217.139 20.592C218.003 19.704 218.435 18.492 218.435 16.956ZM265.293 1.728V27H259.137V11.844L253.485 27H248.517L242.829 11.808V27H236.673V1.728H243.945L251.037 19.224L258.057 1.728H265.293ZM288.656 16.632C288.656 17.208 288.62 17.808 288.548 18.432H274.616C274.712 19.68 275.108 20.64 275.804 21.312C276.524 21.96 277.4 22.284 278.432 22.284C279.968 22.284 281.036 21.636 281.636 20.34H288.188C287.852 21.66 287.24 22.848 286.352 23.904C285.488 24.96 284.396 25.788 283.076 26.388C281.756 26.988 280.28 27.288 278.648 27.288C276.68 27.288 274.928 26.868 273.392 26.028C271.856 25.188 270.656 23.988 269.792 22.428C268.928 20.868 268.496 19.044 268.496 16.956C268.496 14.868 268.916 13.044 269.756 11.484C270.62 9.924 271.82 8.724 273.356 7.884C274.892 7.044 276.656 6.624 278.648 6.624C280.592 6.624 282.32 7.032 283.832 7.848C285.344 8.664 286.52 9.828 287.36 11.34C288.224 12.852 288.656 14.616 288.656 16.632ZM282.356 15.012C282.356 13.956 281.996 13.116 281.276 12.492C280.556 11.868 279.656 11.556 278.576 11.556C277.544 11.556 276.668 11.856 275.948 12.456C275.252 13.056 274.82 13.908 274.652 15.012H282.356Z" fill="#FCC400"/>
</svg>
