<svg width="608" height="333" viewBox="0 0 608 333" fill="none" xmlns="http://www.w3.org/2000/svg">
<g clip-path="url(#clip0)">
<path d="M181.779 322.328H0.0145855V323.66H181.779V322.328Z" fill="#3F3D56"/>
<path d="M19.7313 324.284L19.3856 323.451C19.3099 323.268 11.849 304.942 16.6905 287.225C21.5323 269.508 36.958 258.688 37.113 258.581L37.8198 258.093L38.1652 258.926C38.2409 259.109 45.7016 277.434 40.8603 295.151C36.0186 312.869 20.5928 323.688 20.4378 323.795L19.7313 324.284ZM18.0869 287.683C13.9931 302.663 18.9969 318.121 20.3789 321.913C23.4349 319.574 35.3745 309.658 39.464 294.693C43.5529 279.73 38.5524 264.259 37.1719 260.464C34.1142 262.804 22.1761 272.719 18.0869 287.683V287.683Z" fill="#3F3D56"/>
<path d="M24.191 288.496C28.2472 306.36 20.0009 323.985 20.0009 323.985C20.0009 323.985 5.17822 312.645 1.122 294.781C-2.93421 276.916 5.31205 259.292 5.31205 259.292C5.31205 259.292 20.1347 270.631 24.191 288.496Z" fill="#3023CC"/>
<path d="M551.92 267.038H193.254C192.287 267.037 191.36 266.616 190.676 265.867C189.992 265.118 189.607 264.102 189.606 263.043V21.3098C189.607 20.2505 189.992 19.2348 190.676 18.4858C191.36 17.7367 192.287 17.3154 193.254 17.3142H551.92C552.887 17.3154 553.815 17.7367 554.498 18.4858C555.182 19.2348 555.567 20.2505 555.568 21.3098V263.043C555.567 264.102 555.182 265.118 554.498 265.867C553.815 266.616 552.887 267.037 551.92 267.038V267.038ZM193.254 18.6461C192.609 18.6469 191.991 18.9278 191.535 19.4272C191.079 19.9265 190.823 20.6036 190.822 21.3098V263.043C190.823 263.749 191.079 264.426 191.535 264.926C191.991 265.425 192.609 265.706 193.254 265.707H551.92C552.565 265.706 553.183 265.425 553.639 264.926C554.095 264.426 554.351 263.749 554.352 263.043V21.3098C554.351 20.6036 554.095 19.9265 553.639 19.4271C553.183 18.9277 552.565 18.6468 551.92 18.6461H193.254Z" fill="#3F3D56"/>
<path d="M553.714 1.04992e-05H191.46C190.65 -0.00438052 189.872 0.343946 189.296 0.968373C188.72 1.5928 188.395 2.44218 188.391 3.32967V25.9713H556.784V3.32967C556.78 2.44218 556.454 1.5928 555.878 0.968373C555.302 0.343946 554.524 -0.00438052 553.714 1.04992e-05V1.04992e-05Z" fill="#3023CC"/>
<path d="M512.522 16.7751C514.6 16.7751 516.285 14.9295 516.285 12.6527C516.285 10.376 514.6 8.53027 512.522 8.53027C510.444 8.53027 508.759 10.376 508.759 12.6527C508.759 14.9295 510.444 16.7751 512.522 16.7751Z" fill="#D0CDE1"/>
<path d="M524.564 16.7751C526.643 16.7751 528.328 14.9295 528.328 12.6527C528.328 10.376 526.643 8.53027 524.564 8.53027C522.486 8.53027 520.801 10.376 520.801 12.6527C520.801 14.9295 522.486 16.7751 524.564 16.7751Z" fill="#D0CDE1"/>
<path d="M536.607 16.7751C538.685 16.7751 540.37 14.9295 540.37 12.6527C540.37 10.376 538.685 8.53027 536.607 8.53027C534.528 8.53027 532.844 10.376 532.844 12.6527C532.844 14.9295 534.528 16.7751 536.607 16.7751Z" fill="#D0CDE1"/>
<path d="M382.314 198.448H213.315V62.5975H382.314V198.448ZM214.531 197.116H381.098V63.9294H214.531V197.116Z" fill="#3F3D56"/>
<path d="M460.734 95.2282H421.828V102.553H460.734V95.2282Z" fill="#3F3D56"/>
<path d="M492.953 164.485H454.047V171.81H492.953V164.485Z" fill="#3F3D56"/>
<path d="M531.251 116.538H421.828V123.863H531.251V116.538Z" fill="#3F3D56"/>
<path d="M531.251 128.525H421.828V135.85H531.251V128.525Z" fill="#3F3D56"/>
<path d="M531.251 140.512H421.828V147.837H531.251V140.512Z" fill="#3F3D56"/>
<path d="M528.489 240.082C531.672 237.042 536.807 234.172 540.946 232.491C536.807 230.809 531.672 227.939 528.489 224.898L530.733 231.693H519.093V233.289H530.733L528.489 240.082Z" fill="#3F3D56"/>
<path d="M608 265.707H137.174V267.038H608V265.707Z" fill="#3F3D56"/>
<path d="M335.34 101.762H262.72V176.142H335.34V101.762Z" fill="#3023CC"/>
<path d="M306.655 99.7734H291.405V178.528H306.655V99.7734Z" fill="#3F3D56"/>
<path d="M296.844 84.8762C301.713 89.4543 300.222 100.108 300.222 100.108C300.222 100.108 290.836 103.339 285.966 98.7605C281.097 94.1825 282.588 83.529 282.588 83.529C282.588 83.529 291.974 80.2981 296.844 84.8762Z" fill="#3F3D56"/>
<path d="M313.009 97.7546C308.845 103.103 299.115 101.503 299.115 101.503C299.115 101.503 296.137 91.2307 300.301 85.8821C304.465 80.5335 314.195 82.1339 314.195 82.1339C314.195 82.1339 317.173 92.406 313.009 97.7546Z" fill="#3F3D56"/>
<path d="M62.2493 306.661L62.8572 312.655L57.3861 311.989V304.664L62.2493 306.661Z" fill="#FFB8B8"/>
<path d="M119.393 306.661L118.785 312.655L124.256 311.989V304.664L119.393 306.661Z" fill="#FFB8B8"/>
<path d="M61.6414 177.471L59.2098 246.062C59.2098 246.062 51.3069 297.338 53.1307 298.67C54.9544 300.002 53.1307 307.327 53.1307 307.327L63.4651 308.659C63.4651 308.659 63.4651 303.332 65.8968 301.334C68.3284 299.336 90.8211 205.44 90.8211 205.44L113.922 296.006C113.922 296.006 113.314 301.334 115.137 301.334C116.961 301.334 117.569 308.659 117.569 308.659H127.904V301.334C127.904 301.334 130.943 300.668 129.119 295.34C127.296 290.013 120.609 177.471 120.609 177.471H61.6414Z" fill="#2F2E41"/>
<path d="M58.6019 306.661C58.6019 306.661 55.5623 304.664 54.3465 305.995C53.1307 307.327 43.4041 320.646 43.4041 320.646C43.4041 320.646 30.0301 329.969 42.1883 332.633C54.3465 335.296 63.4651 322.644 64.073 321.312C64.681 319.98 63.4651 309.325 62.8572 310.657C62.2493 311.989 60.4256 311.323 59.8177 310.657C59.2098 309.991 58.6019 306.661 58.6019 306.661Z" fill="#2F2E41"/>
<path d="M123.04 306.661C123.04 306.661 126.08 304.664 127.296 305.995C128.511 307.327 138.238 320.646 138.238 320.646C138.238 320.646 151.612 329.969 139.454 332.633C127.296 335.296 118.177 322.644 117.569 321.312C116.961 319.98 118.177 309.325 118.785 310.657C119.393 311.989 121.217 311.323 121.824 310.657C122.432 309.991 123.04 306.661 123.04 306.661Z" fill="#2F2E41"/>
<path d="M98.4199 78.9129C105.303 78.9129 110.882 72.8008 110.882 65.2613C110.882 57.7217 105.303 51.6097 98.4199 51.6097C91.5373 51.6097 85.9578 57.7217 85.9578 65.2613C85.9578 72.8008 91.5373 78.9129 98.4199 78.9129Z" fill="#FFB8B8"/>
<path d="M90.2131 72.9195L88.3894 93.5633L102.979 96.893L106.627 72.2535L90.2131 72.9195Z" fill="#FFB8B8"/>
<path d="M105.411 88.9018C105.411 88.9018 101.763 97.5589 88.3894 88.2359L63.4651 177.471C63.4651 177.471 96.9001 199.446 118.177 182.798L110.882 92.8974L105.411 88.9018Z" fill="#575A89"/>
<path d="M90.8211 78.9129L79.2708 76.9151L78.055 85.5722C78.055 85.5722 62.2493 87.57 60.4256 94.2293L62.2493 143.508C62.2493 143.508 56.7781 154.163 61.6414 160.822C61.6414 160.822 53.7386 178.803 59.8177 182.132C59.8177 182.132 73.7996 174.807 82.3103 176.805C82.3103 176.805 87.1736 175.473 87.1736 171.477C87.1736 167.482 90.8211 78.9129 90.8211 78.9129Z" fill="#2F2E41"/>
<path d="M104.803 80.2447L111.49 82.2425L112.098 91.5656C112.098 91.5656 128.511 102.886 129.119 109.546C129.727 116.205 116.961 148.17 116.961 148.17C116.961 148.17 121.824 157.493 120.001 163.486C120.001 163.486 127.904 180.8 123.04 185.462C123.04 185.462 113.922 188.126 112.706 184.13C111.49 180.134 100.548 134.185 105.411 112.209C105.411 112.209 100.548 84.2403 104.803 80.2447Z" fill="#2F2E41"/>
<path d="M111.794 101.932H111.565V95.0654C111.565 94.5435 111.471 94.0267 111.289 93.5446C111.107 93.0624 110.839 92.6243 110.503 92.2553C110.166 91.8862 109.766 91.5935 109.326 91.3938C108.885 91.1941 108.414 91.0913 107.937 91.0913H94.6572C94.1807 91.0913 93.709 91.1941 93.2688 91.3938C92.8287 91.5935 92.4287 91.8862 92.0919 92.2553C91.755 92.6243 91.4877 93.0624 91.3054 93.5446C91.1231 94.0267 91.0293 94.5435 91.0293 95.0654V132.736C91.0293 133.257 91.1231 133.774 91.3054 134.256C91.4877 134.739 91.755 135.177 92.0919 135.546C92.4287 135.915 92.8287 136.207 93.2688 136.407C93.709 136.607 94.1807 136.71 94.6572 136.71H107.937C108.414 136.71 108.885 136.607 109.326 136.407C109.766 136.207 110.166 135.915 110.503 135.546C110.839 135.177 111.107 134.739 111.289 134.256C111.471 133.774 111.565 133.257 111.565 132.736V106.82H111.794V101.932Z" fill="#3F3D56"/>
<path d="M117.569 128.858C117.569 128.858 112.706 111.543 105.411 116.871C98.116 122.198 110.274 136.849 110.274 136.849L117.569 128.858Z" fill="#FFB8B8"/>
<path d="M84.134 116.205C84.134 116.205 92.6448 104.884 96.9001 110.212C101.156 115.539 89.6052 127.526 89.6052 127.526L84.134 116.205Z" fill="#FFB8B8"/>
<path d="M62.2493 93.5634C62.2493 93.5634 59.2098 92.8974 57.386 98.8908C55.5623 104.884 48.8753 127.526 48.8753 131.521C48.8753 135.517 51.3069 151.499 64.6809 148.836C78.055 146.172 93.8606 127.526 93.8606 127.526L85.3499 113.541L67.1126 125.528L62.2493 93.5634Z" fill="#2F2E41"/>
<path opacity="0.1" d="M64.8761 110.828L67.4165 125.195L86.2617 113.208L68.6324 120.534L64.7454 109.971L64.8761 110.828Z" fill="black"/>
<path opacity="0.1" d="M118.481 125.195L120.913 127.193L122.128 117.87L118.481 125.195Z" fill="black"/>
<path opacity="0.1" d="M61.9454 150.5C61.9454 150.5 79.8013 145.179 88.1988 133.522C88.1988 133.522 79.5747 149.169 61.9454 150.5Z" fill="black"/>
<path opacity="0.1" d="M106.931 138.514C106.931 138.514 110.691 158.672 120.361 159.248C120.361 159.248 108.754 163.153 106.931 138.514Z" fill="black"/>
<path d="M126.688 106.882C126.688 106.882 128.511 108.214 129.727 114.207C130.943 120.201 138.846 142.842 135.806 148.17C132.767 153.497 127.904 165.484 117.569 157.493L107.235 136.849L117.569 126.194L121.824 129.524L126.688 106.882Z" fill="#2F2E41"/>
<path d="M86.4563 68.7236C86.4563 68.7236 76.0046 50.1679 87.1371 49.2028C90.8521 48.9181 94.4797 47.8354 97.813 46.0162C101.503 43.9592 106.148 42.3956 108.62 45.5621C109.699 47.0101 110.956 48.2863 112.357 49.354C114.528 50.9315 117.04 53.4887 115.649 56.2318L113.368 60.7288L110.175 69.7229C110.919 65.8435 110.938 62.5863 109.035 60.9786C109.035 60.9786 98.4199 65.9272 93.0703 56.9812C87.0817 52.0592 85.1764 67.5517 86.4563 68.7236Z" fill="#2F2E41"/>
<path d="M101.459 107.881C103.138 107.881 104.499 106.39 104.499 104.551C104.499 102.712 103.138 101.222 101.459 101.222C99.7808 101.222 98.4199 102.712 98.4199 104.551C98.4199 106.39 99.7808 107.881 101.459 107.881Z" fill="#3023CC"/>
</g>
<defs>
<clipPath id="clip0">
<rect width="608" height="333" fill="white"/>
</clipPath>
</defs>
</svg>
